<svg width="42" height="35" viewBox="0 0 42 35" fill="none" xmlns="http://www.w3.org/2000/svg">
<path fill-rule="evenodd" clip-rule="evenodd" d="M17.5002 7.35801L17.5002 7.34717L7.59393 7.34704L17.0964 3.7327L17.0953 3.72972C17.2773 3.68142 17.4656 3.66423 17.653 3.67895C17.6778 3.68089 17.7025 3.68339 17.7272 3.68644L17.7275 3.68649C17.9849 3.7184 18.2323 3.81009 18.4519 3.95496L18.4519 3.95498C18.6715 4.09985 18.8577 4.29427 18.9973 4.52419L18.9975 4.52456C19.1369 4.7545 19.2261 5.01417 19.2586 5.28482L19.2587 5.28534C19.2912 5.55611 19.2661 5.83109 19.1853 6.0904L19.1852 6.0906C19.1043 6.34997 18.9697 6.58718 18.7911 6.78506L18.7909 6.78524C18.6124 6.98303 18.3943 7.13658 18.1525 7.23478L18.152 7.23497C18.1293 7.24419 18.1064 7.25291 18.0833 7.26111C17.8955 7.32798 17.6983 7.36072 17.5002 7.35801ZM0 6.31762V11.0314L17.4642 11.0317C18.1275 11.0395 18.7872 10.9146 19.408 10.6625L19.4084 10.6624C19.8809 10.4704 20.3232 10.2079 20.722 9.88407C20.9344 9.71162 21.1345 9.52178 21.3203 9.31594L21.3204 9.31576C21.8551 8.72334 22.2581 8.01322 22.5002 7.23674L22.5003 7.23653C22.7424 6.46006 22.8176 5.63665 22.7204 4.82584L22.7204 4.82532C22.6232 4.01448 22.3561 3.23652 21.9384 2.54768L21.9382 2.54731C21.5204 1.85838 20.9624 1.27584 20.3046 0.841821L20.3045 0.8418C20.0759 0.690973 19.8372 0.559391 19.5907 0.44789C19.1279 0.238532 18.6375 0.0999656 18.1344 0.0377082L18.1341 0.0376621C17.3845 -0.0550347 16.6251 0.0239003 15.9077 0.268739L15.9072 0.267169L15.8535 0.287593L15.8471 0.289838L15.8464 0.290097L15.8465 0.290262L0 6.31762ZM0 22.1016V25.8861L23.1102 34.5405L23.1099 34.5412C23.9463 34.8925 24.8459 35.0452 25.7447 34.9884C26.0903 34.9666 26.4325 34.914 26.7678 34.8318C27.3045 34.7001 27.8234 34.4923 28.3099 34.2129C29.1004 33.7589 29.7861 33.1269 30.318 32.362C30.85 31.597 31.2152 30.7179 31.3875 29.7873C31.5599 28.8568 31.5351 27.8976 31.3151 26.9783C31.0951 26.0589 30.6851 25.2019 30.1146 24.4685C29.7633 24.017 29.3566 23.6192 28.9061 23.2848C28.6248 23.076 28.3265 22.8919 28.014 22.735C27.2026 22.3274 26.3158 22.1131 25.4168 22.1071V22.1016L0 22.1016ZM25.3931 25.7861L10.1764 25.7861L24.4723 31.1397L24.471 31.1435C24.8108 31.2754 25.1732 31.3319 25.5352 31.3091C25.9201 31.2848 26.2952 31.1714 26.6337 30.977C26.9722 30.7826 27.2658 30.512 27.4936 30.1844C27.7214 29.8568 27.8778 29.4804 27.9516 29.0819C28.0254 28.6834 28.0148 28.2726 27.9206 27.8789C27.8264 27.4853 27.6508 27.1183 27.4065 26.8042C27.1621 26.4901 26.855 26.2367 26.507 26.0619C26.1594 25.8873 25.7797 25.7956 25.3946 25.793L25.393 25.793L25.393 25.7923L25.3931 25.7861ZM33.2816 7.82544L33.28 7.82636L31.5588 4.61843L31.5569 4.61473L31.5603 4.61268C32.4922 4.05906 33.5323 3.73775 34.6006 3.67346C34.7555 3.66413 34.9105 3.66025 35.0652 3.66177C35.9783 3.67072 36.8825 3.86775 37.7263 4.24346C38.7131 4.68282 39.5909 5.35481 40.2922 6.20767C40.9934 7.06052 41.4994 8.07148 41.7711 9.16267C42.0428 10.2539 42.0731 11.3962 41.8595 12.5016C41.6458 13.607 41.1941 14.6461 40.539 15.5387C39.9789 16.3019 39.2829 16.9407 38.4915 17.4203C38.3574 17.5016 38.2204 17.5783 38.081 17.6503C37.119 18.1468 36.0616 18.4042 34.9902 18.4026V18.402H0V14.7178H34.9951L34.9951 14.7139C35.5303 14.7147 36.0585 14.5861 36.5391 14.3381C37.0196 14.09 37.4397 13.7292 37.7669 13.2833C38.0942 12.8374 38.3198 12.3183 38.4265 11.7661C38.5332 11.2139 38.5181 10.6433 38.3824 10.0982C38.2467 9.55313 37.9939 9.04812 37.6436 8.62209C37.2933 8.19606 36.8548 7.86037 36.3619 7.6409C35.869 7.42142 35.3348 7.32401 34.8005 7.35616C34.2668 7.38828 33.7471 7.54882 33.2816 7.82544Z" fill="url(#paint0_linear_38_481)"/>
<defs>
<linearGradient id="paint0_linear_38_481" x1="21" y1="0" x2="21" y2="35" gradientUnits="userSpaceOnUse">
<stop stop-color="#CED3EA"/>
<stop offset="1" stop-color="#7E83A9"/>
</linearGradient>
</defs>
</svg>
